<svg width="17" height="16" viewBox="0 0 17 16" fill="none" xmlns="http://www.w3.org/2000/svg">
<path d="M8.81079 9.69837L15.8094 2.01648L16.7334 2.85828L8.87488 11.4839L4.59082 7.41138L5.45215 6.50537L8.81079 9.69837ZM16.248 5.22669L15.2733 6.29993C15.4148 6.84326 15.4902 7.41296 15.4902 8C15.4902 11.7219 12.4622 14.75 8.74023 14.75C5.01831 14.75 1.99023 11.7219 1.99023 8C1.99023 4.27808 5.01831 1.25 8.74023 1.25C10.4645 1.25 12.0394 1.90015 13.2339 2.96777L14.0765 2.03992C12.6075 0.721436 10.7294 0 8.74023 0C6.60339 0 4.59436 0.832153 3.08337 2.34314C1.57239 3.85413 0.740234 5.86316 0.740234 8C0.740234 10.1368 1.57239 12.1459 3.08337 13.6569C4.59436 15.1678 6.60339 16 8.74023 16C10.8771 16 12.8861 15.1678 14.3971 13.6569C15.9081 12.1459 16.7402 10.1368 16.7402 8C16.7402 7.03833 16.5712 6.10278 16.248 5.22669Z" fill="#0051AE"/>
</svg>
