<svg width="73" height="72" viewBox="0 0 73 72" fill="none" xmlns="http://www.w3.org/2000/svg">
<rect x="0.333008" width="72" height="72" rx="6.72897" fill="#CCE4FF"/>
<g clip-path="url(#clip0_732_1166)">
<path d="M56.9936 30.0237H54.1329V29.7024C54.1329 28.9027 53.4823 28.2522 52.6826 28.2522H47.0405C46.6517 28.2522 46.3364 28.5674 46.3364 28.9563C46.3364 29.3453 46.6517 29.6604 47.0405 29.6604H52.6826C52.7058 29.6604 52.7247 29.6792 52.7247 29.7024V38.2877C52.7247 38.6766 53.0399 38.9918 53.4288 38.9918C53.8176 38.9918 54.1329 38.6766 54.1329 38.2877V31.4319H56.9936C57.0888 31.4319 57.1662 31.5094 57.1662 31.6046V56.1697C57.1662 57.781 55.8554 59.0919 54.2441 59.0919H19.4232C17.8119 59.0919 16.501 57.781 16.501 56.1697V31.6046C16.501 31.5094 16.5785 31.4319 16.6737 31.4319H19.6282V55.514C19.6282 56.5069 20.436 57.3148 21.429 57.3148H52.332C53.325 57.3148 54.1328 56.507 54.1328 55.514V41.2909C54.1328 40.9019 53.8175 40.5868 53.4287 40.5868C53.0398 40.5868 52.7246 40.9019 52.7246 41.2909V51.4237H41.3325C39.857 51.4237 38.5254 52.0477 37.5847 53.0443V43.9363C37.5847 43.5474 37.2694 43.2322 36.8806 43.2322C36.4917 43.2322 36.1764 43.5474 36.1764 43.9363V53.0444C35.2357 52.0478 33.904 51.4238 32.4287 51.4238H29.2291C28.8403 51.4238 28.525 51.739 28.525 52.1279C28.525 52.5169 28.8403 52.8321 29.2291 52.8321H32.4287C34.2653 52.8321 35.7965 54.1604 36.1148 55.9065H21.429C21.2125 55.9065 21.0365 55.7305 21.0365 55.514V52.8321H26.2258C26.6147 52.8321 26.93 52.5169 26.93 52.1279C26.93 51.739 26.6147 51.4238 26.2258 51.4238H21.0365V29.7024C21.0365 29.6792 21.0553 29.6604 21.0785 29.6604H26.7206C27.1095 29.6604 27.4247 29.3453 27.4247 28.9563C27.4247 28.5674 27.1095 28.2522 26.7206 28.2522H21.0785C20.2788 28.2522 19.6282 28.9028 19.6282 29.7024V30.0237H16.6737C15.802 30.0237 15.0928 30.7329 15.0928 31.6046V56.1697C15.0928 58.5575 17.0354 60.5001 19.4232 60.5001H54.2439C56.6317 60.5001 58.5743 58.5575 58.5743 56.1697V31.6046C58.5744 30.7329 57.8653 30.0237 56.9936 30.0237ZM41.3325 52.832H52.7246V55.514C52.7246 55.7305 52.5485 55.9065 52.332 55.9065H37.6465C37.9646 54.1603 39.4959 52.832 41.3325 52.832Z" fill="#0051AE"/>
<path d="M27.4935 22.3794C27.88 22.4152 28.2241 22.1316 28.2606 21.7444C28.462 19.6092 29.4479 17.6322 31.0372 16.1778C32.6363 14.7143 34.7117 13.9082 36.8814 13.9082C41.6565 13.9082 45.5414 17.7931 45.5414 22.5682C45.5414 24.365 44.996 26.0881 43.9643 27.5515C43.9585 27.5598 43.9529 27.5682 43.9473 27.5767L39.4415 34.5914C39.3686 34.705 39.3298 34.837 39.3298 34.972V35.8842C39.3298 36.0693 39.1792 36.2199 38.9941 36.2199H38.9481L39.3967 28.6084H40.1988C41.3466 28.6084 42.2804 27.6746 42.2804 26.5269V26.4415C42.2804 25.2938 41.3466 24.36 40.1988 24.36C39.0984 24.36 38.1857 25.2205 38.1209 26.319L38.069 27.2001H35.5998L35.5479 26.319C35.4832 25.2205 34.5703 24.36 33.4699 24.36C32.3221 24.36 31.3884 25.2938 31.3884 26.4415V26.5269C31.3884 27.6746 32.3221 28.6084 33.4699 28.6084H34.2721L34.7204 36.215C34.5582 36.1914 34.4329 36.0528 34.4329 35.8842V34.972C34.4329 34.837 34.3941 34.705 34.3213 34.5914L29.8154 27.5767C29.8099 27.5682 29.8043 27.5598 29.7985 27.5515C29.1506 26.6324 28.6943 25.6111 28.4426 24.5157C28.3554 24.1367 27.9771 23.9003 27.5986 23.9873C27.2196 24.0745 26.983 24.4523 27.0702 24.8313C27.3619 26.1005 27.8897 27.2843 28.6387 28.3502L33.0249 35.1785V35.884C33.0249 36.595 33.453 37.207 34.0647 37.4782V38.6689C34.0647 39.9219 35.084 40.9412 36.3369 40.9412H37.4263C38.6792 40.9412 39.6986 39.9219 39.6986 38.6689V37.4782C40.3101 37.207 40.7384 36.5951 40.7384 35.884V35.1785L45.1245 28.3502C46.3187 26.6508 46.9499 24.6517 46.9499 22.5681C46.9495 17.0165 42.4329 12.5 36.8814 12.5C34.3589 12.5 31.9458 13.4372 30.0864 15.1389C28.2391 16.8298 27.0928 19.1286 26.8586 21.6122C26.822 21.9995 27.1063 22.3429 27.4935 22.3794ZM39.5267 26.4018C39.5476 26.0465 39.8429 25.7681 40.1988 25.7681C40.5701 25.7681 40.8721 26.0702 40.8721 26.4414V26.5268C40.8721 26.898 40.5701 27.2 40.1988 27.2H39.4797L39.5267 26.4018ZM33.4699 27.2C33.0986 27.2 32.7966 26.898 32.7966 26.5268V26.4414C32.7966 26.0702 33.0986 25.7681 33.4699 25.7681C33.826 25.7681 34.1211 26.0465 34.1421 26.4018L34.1891 27.2H33.4699ZM37.986 28.6083L37.5375 36.2198H36.1313L35.6829 28.6083H37.986ZM38.29 38.669C38.29 39.1454 37.9024 39.533 37.426 39.533H36.3366C35.8602 39.533 35.4726 39.1454 35.4726 38.669V37.628H38.2899V38.669H38.29Z" fill="#0051AE"/>
<path d="M49.2141 17.8467C49.3791 17.8467 49.5447 17.7891 49.6784 17.6717L51.2147 16.3228C51.5069 16.0664 51.5358 15.6214 51.2793 15.3292C51.0228 15.037 50.5779 15.0081 50.2856 15.2646L48.7493 16.6135C48.4571 16.87 48.4283 17.315 48.6847 17.6072C48.824 17.7657 49.0186 17.8467 49.2141 17.8467Z" fill="#0051AE"/>
<path d="M48.7493 22.0934L50.2856 23.4424C50.4193 23.5598 50.5849 23.6174 50.7499 23.6174C50.9455 23.6174 51.1401 23.5364 51.2793 23.3778C51.5359 23.0856 51.507 22.6407 51.2148 22.3842L49.6785 21.0352C49.3863 20.7785 48.9415 20.8075 48.6849 21.0997C48.4282 21.3919 48.457 21.8367 48.7493 22.0934Z" fill="#0051AE"/>
<path d="M22.5462 16.323L24.0825 17.6719C24.2162 17.7893 24.3818 17.8469 24.5468 17.8469C24.7423 17.8469 24.937 17.7658 25.0762 17.6073C25.3328 17.3151 25.3039 16.8701 25.0116 16.6136L23.4753 15.2647C23.1831 15.008 22.7381 15.037 22.4817 15.3293C22.2251 15.6215 22.254 16.0664 22.5462 16.323Z" fill="#0051AE"/>
<path d="M23.011 23.6173C23.1759 23.6173 23.3415 23.5596 23.4753 23.4423L25.0116 22.0933C25.3038 21.8367 25.3327 21.3918 25.0761 21.0996C24.8196 20.8075 24.3747 20.7786 24.0825 21.035L22.5462 22.384C22.254 22.6406 22.2251 23.0855 22.4817 23.3777C22.6208 23.5363 22.8153 23.6173 23.011 23.6173Z" fill="#0051AE"/>
<path d="M30.6508 36.9237C30.6508 36.5347 30.3356 36.2195 29.9467 36.2195H23.0108C22.6219 36.2195 22.3066 36.5347 22.3066 36.9237C22.3066 37.3126 22.6219 37.6278 23.0108 37.6278H29.9467C30.3356 37.6278 30.6508 37.3126 30.6508 36.9237Z" fill="#0051AE"/>
<path d="M32.0923 39.8016H24.2832C23.8944 39.8016 23.5791 40.1167 23.5791 40.5057C23.5791 40.8946 23.8944 41.2098 24.2832 41.2098H32.0923C32.4811 41.2098 32.7964 40.8946 32.7964 40.5057C32.7964 40.1167 32.4811 39.8016 32.0923 39.8016Z" fill="#0051AE"/>
<path d="M32.0923 43.2319H24.2832C23.8944 43.2319 23.5791 43.5471 23.5791 43.9361C23.5791 44.325 23.8944 44.6402 24.2832 44.6402H32.0923C32.4811 44.6402 32.7964 44.325 32.7964 43.9361C32.7964 43.5471 32.4811 43.2319 32.0923 43.2319Z" fill="#0051AE"/>
<path d="M32.0923 46.6626H24.2832C23.8944 46.6626 23.5791 46.9778 23.5791 47.3667C23.5791 47.7557 23.8944 48.0708 24.2832 48.0708H32.0923C32.4811 48.0708 32.7964 47.7557 32.7964 47.3667C32.7964 46.9778 32.4811 46.6626 32.0923 46.6626Z" fill="#0051AE"/>
<path d="M51.4555 36.9237C51.4555 36.5347 51.1403 36.2195 50.7514 36.2195H43.8154C43.4266 36.2195 43.1113 36.5347 43.1113 36.9237C43.1113 37.3126 43.4266 37.6278 43.8154 37.6278H50.7514C51.1403 37.6278 51.4555 37.3126 51.4555 36.9237Z" fill="#0051AE"/>
<path d="M49.478 39.8016H41.669C41.2801 39.8016 40.9648 40.1168 40.9648 40.5058C40.9648 40.8947 41.2801 41.2099 41.669 41.2099H49.478C49.8669 41.2099 50.1821 40.8947 50.1821 40.5058C50.1821 40.1168 49.8669 39.8016 49.478 39.8016Z" fill="#0051AE"/>
<path d="M49.478 43.232H41.669C41.2801 43.232 40.9648 43.5472 40.9648 43.9361C40.9648 44.3251 41.2801 44.6402 41.669 44.6402H49.478C49.8669 44.6402 50.1821 44.3251 50.1821 43.9361C50.1821 43.5472 49.8669 43.232 49.478 43.232Z" fill="#0051AE"/>
<path d="M49.478 46.6626H41.669C41.2801 46.6626 40.9648 46.9778 40.9648 47.3667C40.9648 47.7557 41.2801 48.0708 41.669 48.0708H49.478C49.8669 48.0708 50.1821 47.7557 50.1821 47.3667C50.1821 46.9778 49.8669 46.6626 49.478 46.6626Z" fill="#0051AE"/>
</g>
<defs>
<clipPath id="clip0_732_1166">
<rect width="48" height="48" fill="white" transform="translate(12.833 12.5)"/>
</clipPath>
</defs>
</svg>
