<svg width="72" height="72" viewBox="0 0 72 72" fill="none" xmlns="http://www.w3.org/2000/svg">
<rect width="72" height="72" rx="6.72897" fill="#FFCCCC"/>
<g clip-path="url(#clip0_732_1165)">
<path d="M56.6131 37.6622C56.4686 36.909 55.8098 36.3643 55.0427 36.3638H53.4979L53.3843 35.683C53.271 34.9992 52.7323 34.465 52.0475 34.3574C51.8955 34.3334 51.7419 34.3174 51.5907 34.2966C51.8527 33.0736 51.6351 31.7967 50.9827 30.7294C51.3274 29.8354 51.2631 28.8353 50.8067 27.9928C50.3504 27.1503 49.5478 26.55 48.6107 26.3502C48.0116 23.1438 45.2222 20.8131 41.9603 20.7934C41.8803 20.7934 41.8091 20.8038 41.7331 20.8062C41.2119 19.9877 40.3527 19.4445 39.3897 19.3247C38.4267 19.2049 37.4606 19.5211 36.7547 20.187C35.8656 19.6091 34.8281 19.3009 33.7675 19.2998C32.0588 19.3068 30.4483 20.1 29.4011 21.4502C28.2384 21.1112 26.9845 21.3194 25.9937 22.016C25.0029 22.7127 24.3827 23.8221 24.3083 25.031C23.087 25.5444 22.2923 26.7398 22.2915 28.0646C22.294 28.2943 22.3209 28.523 22.3715 28.747C21.2915 30.3753 21.0092 32.4059 21.6043 34.267C21.3899 34.2966 21.1707 34.323 20.9643 34.3534C20.2761 34.4573 19.7325 34.9918 19.6171 35.6782L19.5035 36.3614H17.9547C17.189 36.362 16.531 36.9049 16.3851 37.6566L12.8819 55.6422C12.7451 56.3466 12.9307 57.0753 13.3877 57.6284C13.8447 58.1816 14.5252 58.5013 15.2427 58.4998H31.9259C32.5883 59.5926 34.6011 60.0998 36.4987 60.0998C38.3763 60.0998 40.3699 59.6046 41.0515 58.4998H57.7547C58.4721 58.5012 59.1525 58.1817 59.6095 57.6287C60.0664 57.0757 60.2521 56.3473 60.1155 55.643L56.6131 37.6622ZM24.7107 29.5126C24.0612 29.1221 23.7512 28.3468 23.9524 27.6161C24.1536 26.8853 24.8168 26.378 25.5747 26.375C26.1052 26.3735 26.6044 26.6256 26.9179 27.0534C27.0883 27.2829 27.3681 27.4041 27.6521 27.3714C27.936 27.3386 28.1809 27.1569 28.2945 26.8946C28.4081 26.6323 28.3731 26.3293 28.2027 26.0998C27.6595 25.3738 26.8363 24.9093 25.9339 24.8198C26.1725 23.6995 27.1605 22.8974 28.3059 22.8942C28.4036 22.8992 28.5008 22.9099 28.5971 22.9262C28.5328 23.0903 28.4767 23.2574 28.4291 23.427C28.3296 23.8505 28.5867 24.2759 29.0079 24.3847C29.4291 24.4935 29.86 24.2458 29.9779 23.827C30.0689 23.4754 30.2087 23.1383 30.3931 22.8254C31.1028 21.6366 32.383 20.906 33.7675 20.8998C34.5211 20.9032 35.2573 21.1255 35.8867 21.5398C35.7668 21.8767 35.7033 22.2311 35.6987 22.5886C35.6987 23.0305 36.0569 23.3886 36.4987 23.3886C36.9406 23.3886 37.2987 23.0305 37.2987 22.5886C37.2987 21.6593 38.0522 20.9058 38.9815 20.9058C39.9109 20.9058 40.6643 21.6593 40.6643 22.5886C40.6643 23.0305 41.0225 23.3886 41.4643 23.3886C41.9062 23.3886 42.2643 23.0305 42.2643 22.5886C42.2643 22.527 42.2491 22.4686 42.2459 22.407C44.5366 22.5484 46.4628 24.1767 46.9835 26.4118C46.6104 26.5205 46.2597 26.6953 45.9483 26.9278C45.7197 27.0993 45.5999 27.3798 45.6341 27.6635C45.6683 27.9473 45.8512 28.1913 46.1141 28.3035C46.3769 28.4158 46.6797 28.3793 46.9083 28.2078C47.5476 27.7345 48.4307 27.7723 49.0273 28.2984C49.6239 28.8246 49.7717 29.696 49.3819 30.3894C49.2078 30.6956 48.9432 30.9404 48.6243 31.0902C48.29 31.2521 48.1111 31.6228 48.1924 31.9853C48.2736 32.3478 48.5937 32.6066 48.9651 32.6102C49.0825 32.6104 49.1983 32.5845 49.3043 32.5342C49.5164 32.4315 49.7167 32.3062 49.9019 32.1606C50.3155 33.3363 50.0561 34.6438 49.2251 35.5726L49.2059 35.5926C48.1637 36.7217 46.5012 37.0268 45.1259 36.3414C44.9912 36.2703 44.8618 36.1896 44.7387 36.0998C45.328 35.2737 45.4094 34.1886 44.9499 33.2838C44.8213 33.0285 44.5662 32.8611 44.2808 32.8448C43.9953 32.8285 43.7228 32.9657 43.566 33.2048C43.4091 33.4439 43.3917 33.7485 43.5203 34.0038C43.7834 34.5326 43.6193 35.1743 43.1347 35.5118C42.8502 35.7013 42.4986 35.7612 42.1674 35.6767C41.8361 35.5922 41.5562 35.3713 41.3971 35.0686C41.2692 34.813 41.0147 34.645 40.7293 34.6279C40.4439 34.6108 40.1712 34.7473 40.0137 34.9859C39.8562 35.2245 39.838 35.529 39.9659 35.7846C40.4351 36.7317 41.4018 37.3299 42.4587 37.327C42.8028 37.3247 43.1434 37.2577 43.4627 37.1294C43.7485 37.3796 44.0633 37.5945 44.4003 37.7694C45.5405 38.3604 46.8664 38.483 48.0955 38.111C47.305 39.1905 46.1218 39.916 44.8011 40.131C44.3903 40.1979 44.0994 40.5687 44.1322 40.9837C44.165 41.3986 44.5105 41.7191 44.9267 41.7206C44.9693 41.7206 45.0118 41.7174 45.0539 41.711C45.5411 41.6267 46.0172 41.4877 46.4731 41.2966C46.7196 41.7324 46.9196 42.1928 47.0699 42.6702C47.0975 42.7536 47.1115 42.8408 47.1115 42.9286C47.1113 43.2744 46.9048 43.5867 46.5867 43.7222C46.2188 43.8646 45.801 43.7523 45.5539 43.4446C44.9344 42.7171 44.1231 42.178 43.2123 41.8886C41.4835 41.3094 40.8163 40.7918 40.5331 40.2286C40.9482 40.1768 41.3584 40.0912 41.7595 39.9726C42.0328 39.8886 42.2404 39.6652 42.3043 39.3866C42.3681 39.1079 42.2785 38.8164 42.0691 38.6218C41.8597 38.4271 41.5624 38.359 41.2891 38.443C40.8402 38.5808 40.3769 38.6659 39.9083 38.6966C39.0057 38.7672 38.0988 38.6304 37.2571 38.2966C36.9411 38.1734 36.5817 38.2628 36.3603 38.5198C35.1956 39.8578 33.2021 40.0852 31.7659 39.044C30.3297 38.0027 29.926 36.0373 30.8355 34.5142C30.9829 34.2683 30.9878 33.9624 30.8485 33.7119C30.7092 33.4613 30.4468 33.3041 30.1601 33.2995C29.8734 33.2948 29.6061 33.4435 29.4587 33.6894C29.2679 34.0143 29.1144 34.3597 29.0011 34.719C28.3712 34.6859 27.8744 34.1706 27.8643 33.5398V33.5198C27.8639 33.3087 27.7792 33.1066 27.6289 32.9583C27.4787 32.81 27.2754 32.7279 27.0643 32.7302C26.6206 32.7346 26.2634 33.0961 26.2643 33.5398C26.2679 34.9586 27.3378 36.1478 28.7483 36.3006C28.7512 36.5688 28.7756 36.8363 28.8211 37.1006C27.0349 37.4871 25.1822 36.8451 24.0183 35.4361C22.8543 34.0272 22.5733 32.0867 23.2899 30.4054C23.4689 30.5865 23.6687 30.7458 23.8851 30.8798C24.2631 31.1012 24.7487 30.9775 24.9748 30.6024C25.2008 30.2272 25.0831 29.7401 24.7107 29.5094V29.5126ZM21.1907 35.939C21.5595 35.8846 21.9403 35.8366 22.3187 35.787C23.7979 38.1507 26.6268 39.2985 29.3347 38.6334C30.0623 40.0144 31.3919 40.9774 32.9308 41.2382C34.4698 41.4991 36.0424 41.0279 37.1843 39.9638C37.728 40.126 38.2879 40.2274 38.8539 40.2662C39.2403 41.7318 40.3571 42.6198 42.7035 43.4062C43.3361 43.6045 43.9004 43.9762 44.3323 44.479C44.8126 45.0501 45.519 45.382 46.2651 45.387C46.5915 45.3869 46.9144 45.3211 47.2147 45.1934C48.1216 44.8059 48.7099 43.9148 48.7099 42.9286C48.7107 42.6715 48.6696 42.4159 48.5883 42.1718C48.4084 41.6066 48.1715 41.0611 47.8811 40.5438C49.2415 39.5659 50.1892 38.1166 50.5395 36.4782C50.7099 36.2758 50.864 36.0602 51.0003 35.8334C51.2683 35.8678 51.5363 35.8982 51.8059 35.943L54.6939 53.3142C49.0487 51.4292 42.9439 51.4292 37.2987 53.3142V43.2998C37.2987 42.858 36.9406 42.4998 36.4987 42.4998C36.0569 42.4998 35.6987 42.858 35.6987 43.2998V53.3174C30.0542 51.4307 23.9495 51.4284 18.3035 53.311L21.1907 35.939ZM14.6195 56.6054C14.4684 56.4228 14.4068 56.1822 14.4515 55.9494L17.9547 37.9638H19.2347L16.7243 53.051C16.636 53.6002 16.8382 54.1559 17.2588 54.5199C17.6793 54.8839 18.2583 55.0044 18.7891 54.8382C23.0539 53.4565 27.5975 53.1682 32.0027 53.9998L31.7643 56.8998H15.2427C15.0014 56.9 14.7727 56.792 14.6195 56.6054ZM36.4987 58.4998C34.5715 58.4998 33.4659 57.9302 33.3035 57.6766L33.5787 54.3566C34.4584 54.5757 35.3193 54.8643 36.1531 55.2198C36.261 55.2718 36.379 55.2991 36.4987 55.2998C36.6188 55.2997 36.7372 55.2723 36.8451 55.2198C37.6785 54.8622 38.5391 54.5717 39.4187 54.351L39.6939 57.6758C39.5315 57.9302 38.4259 58.4998 36.4987 58.4998ZM58.3779 56.6054C58.2248 56.792 57.9961 56.9 57.7547 56.8998H41.2355L40.9955 53.9942C45.4032 53.1644 49.9487 53.4551 54.2147 54.8398C54.7454 55.0038 55.3232 54.8816 55.7421 54.5169C56.161 54.1523 56.3616 53.5969 56.2723 53.0486L53.7643 37.9646H55.0443L58.5483 55.9486C58.5927 56.182 58.5302 56.4231 58.3779 56.6054Z" fill="#E63B3B"/>
<path d="M33.8472 31.048C33.5198 31.3443 33.4943 31.8499 33.7904 32.1776C34.4691 32.9269 35.366 33.444 36.3544 33.656C35.9068 34.2868 35.1808 34.6612 34.4072 34.66C33.9654 34.66 33.6072 35.0182 33.6072 35.46C33.6072 35.9018 33.9654 36.26 34.4072 36.26C36.0634 36.2666 37.5494 35.2437 38.1344 33.6944C40.1237 33.3647 41.6986 31.8335 42.084 29.8544C42.1436 29.5713 42.0457 29.2781 41.828 29.0876C41.6103 28.8971 41.3067 28.839 41.034 28.9356C40.7613 29.0322 40.5621 29.2685 40.5128 29.5536C40.356 30.3787 39.8799 31.1086 39.188 31.5848C37.857 32.4812 36.072 32.2777 34.9768 31.1048C34.6805 30.7773 34.1749 30.7519 33.8472 31.048Z" fill="#E63B3B"/>
<path d="M31.0598 30.1799C31.5016 30.1799 31.8598 29.8217 31.8598 29.3799C31.8598 28.8282 32.0789 28.2992 32.469 27.9091C32.8591 27.519 33.3881 27.2999 33.9398 27.2999C34.3816 27.2999 34.7398 26.9417 34.7398 26.4999C34.7398 26.0581 34.3816 25.6999 33.9398 25.6999C31.9083 25.7021 30.262 27.3484 30.2598 29.3799C30.2598 29.5921 30.3441 29.7955 30.4941 29.9456C30.6441 30.0956 30.8476 30.1799 31.0598 30.1799Z" fill="#E63B3B"/>
<path d="M37.2992 14.4999V13.6999C37.2992 13.2581 36.941 12.8999 36.4992 12.8999C36.0574 12.8999 35.6992 13.2581 35.6992 13.6999V14.4999C35.6992 14.9417 36.0574 15.2999 36.4992 15.2999C36.941 15.2999 37.2992 14.9417 37.2992 14.4999Z" fill="#E63B3B"/>
<path d="M49.6263 18.6407L48.8263 19.4407C48.6183 19.6416 48.5349 19.939 48.6081 20.2187C48.6813 20.4984 48.8998 20.7169 49.1795 20.7901C49.4592 20.8633 49.7566 20.7799 49.9575 20.5719L50.7575 19.7719C50.9654 19.5711 51.0489 19.2736 50.9756 18.9939C50.9024 18.7142 50.684 18.4958 50.4043 18.4226C50.1246 18.3494 49.8271 18.4328 49.6263 18.6407Z" fill="#E63B3B"/>
<path d="M23.6059 20.8063C23.9295 20.8062 24.2211 20.6113 24.3449 20.3124C24.4687 20.0135 24.4003 19.6695 24.1715 19.4407L23.3715 18.6407C23.1707 18.4327 22.8732 18.3493 22.5935 18.4225C22.3138 18.4957 22.0954 18.7142 22.0222 18.9939C21.949 19.2736 22.0324 19.571 22.2403 19.7719L23.0403 20.5719C23.1903 20.7219 23.3938 20.8062 23.6059 20.8063Z" fill="#E63B3B"/>
<path d="M29.7625 17.4399C29.8676 17.4397 29.9717 17.4191 30.0689 17.3791C30.265 17.2979 30.4207 17.1421 30.5019 16.946C30.5831 16.7499 30.583 16.5296 30.5017 16.3335L29.5825 14.1159C29.4772 13.8459 29.234 13.6538 28.9468 13.6141C28.6597 13.5743 28.3735 13.693 28.1988 13.9243C28.024 14.1557 27.9881 14.4634 28.1049 14.7287L29.0233 16.9463C29.1472 17.2452 29.4389 17.44 29.7625 17.4399Z" fill="#E63B3B"/>
<path d="M44.4589 13.6831C44.0509 13.5143 43.5833 13.708 43.4141 14.1159L42.4949 16.3335C42.4134 16.5296 42.4131 16.7502 42.4943 16.9464C42.5755 17.1427 42.7314 17.2987 42.9277 17.3799C43.0249 17.4198 43.129 17.4405 43.2341 17.4407C43.5577 17.4408 43.8494 17.246 43.9733 16.9471L44.8917 14.7295C44.9733 14.5334 44.9735 14.3128 44.8923 14.1166C44.8111 13.9203 44.6552 13.7643 44.4589 13.6831Z" fill="#E63B3B"/>
<path d="M52.7595 26.9655C52.8647 26.9653 52.9689 26.9443 53.0659 26.9039L55.2827 25.9855C55.5468 25.8761 55.7325 25.6342 55.7699 25.3509C55.8073 25.0675 55.6906 24.7857 55.4639 24.6117C55.2372 24.4376 54.9348 24.3977 54.6707 24.5071L52.4531 25.4255C52.0993 25.5708 51.8978 25.9464 51.9725 26.3216C52.0471 26.6968 52.377 26.9666 52.7595 26.9655Z" fill="#E63B3B"/>
<path d="M19.9337 26.9041C20.3419 27.0733 20.8101 26.8795 20.9793 26.4713C21.1485 26.063 20.9547 25.5949 20.5465 25.4257L18.3289 24.5073C17.9206 24.3383 17.4527 24.5322 17.2837 24.9405C17.1147 25.3487 17.3086 25.8167 17.7169 25.9857L19.9337 26.9041Z" fill="#E63B3B"/>
</g>
<defs>
<clipPath id="clip0_732_1165">
<rect width="48" height="48" fill="white" transform="translate(12.5 12.5)"/>
</clipPath>
</defs>
</svg>
