<svg width="73" height="72" viewBox="0 0 73 72" fill="none" xmlns="http://www.w3.org/2000/svg">
<rect x="0.667969" width="72" height="72" rx="6.72897" fill="#BDFDE6"/>
<g clip-path="url(#clip0_732_1180)">
<mask id="mask0_732_1180" style="mask-type:luminance" maskUnits="userSpaceOnUse" x="12" y="12" width="49" height="48">
<path d="M12.668 12.0001H60.668V60.0001H12.668V12.0001Z" fill="white"/>
</mask>
<g mask="url(#mask0_732_1180)">
<path d="M27.0664 22.1436C29.6269 19.9008 32.9846 18.5441 36.6693 18.5441C40.8031 18.5441 44.5347 20.2665 47.1854 23.0324" stroke="#1DA843" stroke-width="1.40625" stroke-miterlimit="10" stroke-linecap="round" stroke-linejoin="round"/>
<path d="M49.0746 25.4767C50.4398 27.6913 51.2282 30.2988 51.231 33.09V33.1059C51.231 38.9181 47.8257 43.9342 42.9005 46.2698C42.0575 46.6693 41.5231 47.5216 41.5231 48.4545V50.564H31.8152V48.4545C31.8152 47.5243 31.2846 46.6711 30.4436 46.2726C25.5165 43.938 22.1074 38.9209 22.1074 33.1068V33.09C22.1112 29.8263 23.179 26.8185 24.9849 24.3966" stroke="#1DA843" stroke-width="1.40625" stroke-miterlimit="10" stroke-linecap="round" stroke-linejoin="round"/>
<path d="M38.1477 53.4714H42.4945C43.3823 53.3884 43.868 52.903 43.9514 52.0154C43.9514 51.2109 43.2988 50.5593 42.4945 50.5593H30.8456C29.9579 50.6423 29.4722 51.1277 29.3887 52.0154C29.3887 52.8198 30.0413 53.4714 30.8456 53.4714H35.0836" stroke="#1DA843" stroke-width="1.40625" stroke-miterlimit="10" stroke-linecap="round" stroke-linejoin="round"/>
<path d="M38.146 53.4715H41.5224V57.3654C41.5224 58.3856 40.6077 59.2968 39.5908 59.2968H33.7459C32.7291 59.2968 31.8145 58.3856 31.8145 57.3654V53.4715H35.0819" stroke="#1DA843" stroke-width="1.40625" stroke-miterlimit="10" stroke-linecap="round" stroke-linejoin="round"/>
<path d="M31.8164 56.3901H41.5237" stroke="#1DA843" stroke-width="1.40625" stroke-miterlimit="10" stroke-linecap="round" stroke-linejoin="round"/>
<path d="M36.669 33.0898H31.8154V33.1062C31.8154 34.4462 30.7286 35.533 29.3879 35.533C28.0479 35.533 26.961 34.4462 26.961 33.1062V33.0898H22.1074" stroke="#1DA843" stroke-width="1.40625" stroke-miterlimit="10" stroke-linecap="round" stroke-linejoin="round"/>
<path d="M36.669 33.0897V28.2517C35.3282 28.2517 34.2422 27.1649 34.2422 25.8248C34.2422 24.4841 35.3282 23.3981 36.669 23.3981V18.5436" stroke="#1DA843" stroke-width="1.40625" stroke-miterlimit="10" stroke-linecap="round" stroke-linejoin="round"/>
<path d="M36.6699 50.564V42.8134C38.0107 42.8134 39.0967 41.7274 39.0967 40.3866C39.0967 39.0466 38.0107 37.9598 36.6699 37.9598V33.0897" stroke="#1DA843" stroke-width="1.40625" stroke-miterlimit="10" stroke-linecap="round" stroke-linejoin="round"/>
<path d="M51.2315 33.0897H46.378C46.3694 31.7567 45.2856 30.6784 43.9511 30.6784C42.6158 30.6784 41.5321 31.7567 41.5235 33.0897H36.6699" stroke="#1DA843" stroke-width="1.40625" stroke-miterlimit="10" stroke-linecap="round" stroke-linejoin="round"/>
<path d="M36.6699 12.703V15.6153" stroke="#1DA843" stroke-width="1.40625" stroke-miterlimit="10" stroke-linecap="round" stroke-linejoin="round"/>
<path d="M48.3175 15.8239L46.8613 18.3461" stroke="#1DA843" stroke-width="1.40625" stroke-miterlimit="10" stroke-linecap="round" stroke-linejoin="round"/>
<path d="M56.8425 24.3502L54.3203 25.8064" stroke="#1DA843" stroke-width="1.40625" stroke-miterlimit="10" stroke-linecap="round" stroke-linejoin="round"/>
<path d="M19.0182 46.1884L16.4961 47.6446" stroke="#1DA843" stroke-width="1.40625" stroke-miterlimit="10" stroke-linecap="round" stroke-linejoin="round"/>
<path d="M25.0215 15.8239L26.4776 18.3461" stroke="#1DA843" stroke-width="1.40625" stroke-miterlimit="10" stroke-linecap="round" stroke-linejoin="round"/>
<path d="M16.4961 24.3502L19.0182 25.8064" stroke="#1DA843" stroke-width="1.40625" stroke-miterlimit="10" stroke-linecap="round" stroke-linejoin="round"/>
<path d="M54.3203 46.1884L56.8425 47.6446" stroke="#1DA843" stroke-width="1.40625" stroke-miterlimit="10" stroke-linecap="round" stroke-linejoin="round"/>
<path d="M13.375 35.9974H16.2873" stroke="#1DA843" stroke-width="1.40625" stroke-miterlimit="10" stroke-linecap="round" stroke-linejoin="round"/>
<path d="M57.0508 35.9974H59.9631" stroke="#1DA843" stroke-width="1.40625" stroke-miterlimit="10" stroke-linecap="round" stroke-linejoin="round"/>
</g>
</g>
<defs>
<clipPath id="clip0_732_1180">
<rect width="48" height="48" fill="white" transform="translate(12.668 12)"/>
</clipPath>
</defs>
</svg>
